<?xml version="1.0" standalone="no"?>
<!DOCTYPE svg PUBLIC "-//W3C//DTD SVG 20010904//EN"
 "http://www.w3.org/TR/2001/REC-SVG-20010904/DTD/svg10.dtd">
<svg version="1.0" xmlns="http://www.w3.org/2000/svg"
 width="278.000000pt" height="325.000000pt" viewBox="0 0 278.000000 325.000000"
 preserveAspectRatio="xMidYMid meet">
<metadata>
Created by potrace 1.15, written by Peter Selinger 2001-2017
</metadata>
<g transform="translate(0.000000,325.000000) scale(0.100000,-0.100000)"
fill="#000000" stroke="none">
<path d="M800 3155 l0 -75 -95 0 -95 0 0 -100 0 -100 -100 0 -100 0 0 -195 0
-195 -95 0 -95 0 0 -200 0 -200 -105 0 -105 0 0 -195 0 -194 103 -3 102 -3 3
-197 2 -198 -105 0 -105 0 0 -195 0 -195 105 0 105 0 0 -100 0 -99 92 -3 93
-3 3 -197 2 -198 100 0 100 0 0 -80 0 -80 295 0 295 0 0 80 0 80 194 0 c223 0
210 6 204 -97 l-3 -58 298 -3 297 -2 0 80 0 80 100 0 100 0 0 201 0 200 98 -2
97 -2 3 102 3 101 94 0 95 0 0 195 0 195 -95 0 -95 0 0 200 0 200 95 0 95 0 0
195 0 195 -95 0 -95 0 0 200 0 200 -100 0 -100 0 0 195 0 195 -100 0 -100 0 0
100 0 100 -100 0 -100 0 0 75 0 75 -595 0 -595 0 0 -75z m1000 -765 l0 -100
-397 0 -398 0 2 87 c1 49 2 94 2 101 1 9 87 12 396 12 l395 0 0 -100z m-998
-197 l3 -98 593 -3 592 -2 0 100 0 100 100 0 100 0 0 -200 0 -200 100 0 100 0
0 100 0 100 100 0 100 0 0 -195 0 -195 -200 0 -200 0 0 -100 0 -100 -100 0
-100 0 0 -100 0 -100 -197 2 -198 3 -3 90 c-2 49 -7 92 -11 95 -5 3 -93 4
-195 2 l-186 -3 0 -94 0 -95 -200 0 -200 0 0 100 0 100 -95 0 -95 0 0 100 0
100 -197 0 -198 0 3 195 3 195 94 0 95 0 0 -100 0 -100 100 0 100 0 0 200 0
200 95 0 94 0 3 -97z m-192 -1088 l0 -195 -196 2 -195 3 0 178 c0 97 1 184 1
192 0 13 28 15 195 15 l195 0 0 -195z m1980 0 l0 -195 -200 0 -200 0 0 195 0
195 200 0 200 0 0 -195z"/>
<path d="M1010 1695 l0 -195 95 0 95 0 0 195 0 195 -95 0 -95 0 0 -195z"/>
<path d="M1597 1697 l1 -192 101 -3 101 -3 0 196 0 195 -102 0 -103 0 2 -193z"/>
</g>
</svg>
